<svg width="25" height="24" viewBox="0 0 25 24" fill="none" xmlns="http://www.w3.org/2000/svg">
<path d="M3.86511 2.63163C2.93092 3.25883 2 4.50881 2 7C2 9.49999 3.54824 13.5482 7.00001 17C10.4518 20.4518 14.5 22 17 22C19.5 22 20.75 21.0625 21.375 20.1249C22.0734 19.0773 21.4115 17.7996 20.3763 17.083C19.644 16.576 18.818 16.034 18.25 15.75C16.0237 14.6368 14.5 18.25 10.125 13.875C5.75002 9.49999 9.38992 7.96275 8.25001 5.75C7.95926 5.18559 7.42137 4.36632 6.91881 3.63743C6.20024 2.59525 4.9161 1.92602 3.86511 2.63163Z" fill="#DFDD00"/>
<path d="M12.2002 1.99231C14.714 2.03953 17.2185 3.02591 19.1423 4.94972C21.0661 6.87353 22.0525 9.37805 22.0997 11.8918" stroke="#DFDD00" stroke-width="1.5" stroke-linecap="round"/>
<path d="M12.2899 6.14518C13.7615 6.13693 15.2144 6.67888 16.3137 7.7782C17.413 8.87752 17.955 10.3304 17.9467 11.802M6.1954 12.2397C6.18715 13.7113 6.72911 15.1642 7.82843 16.2635C8.92775 17.3628 10.3806 17.9048 11.8523 17.8965" stroke="#DFDD00" stroke-width="1.5" stroke-linecap="round"/>
</svg>
