<svg xmlns="http://www.w3.org/2000/svg" xmlns:xlink="http://www.w3.org/1999/xlink" width="500" zoomAndPan="magnify" viewBox="0 0 375 374.999991" height="500" preserveAspectRatio="xMidYMid meet" version="1.2"><g id="4bc20db1a0"><rect x="0" width="375" y="0" height="374.999991" style="fill:#ffffff;fill-opacity:1;stroke:none;"/><rect x="0" width="375" y="0" height="374.999991" style="fill:#e7ebec;fill-opacity:1;stroke:none;"/><rect x="0" width="375" y="0" height="374.999991" style="fill:#e7ebec;fill-opacity:1;stroke:none;"/><path style=" stroke:none;fill-rule:nonzero;fill:#003D2E;fill-opacity:1;" d="M 218.75 62.5 C 277.671875 62.5 307.132812 62.503906 325.4375 80.8125 C 343.742188 99.117188 343.75 128.578125 343.75 187.5 C 343.75 246.421875 343.742188 275.882812 325.4375 294.1875 C 307.132812 312.496094 277.671875 312.5 218.75 312.5 L 64.359375 312.5 C 62.855469 312.5 62.097656 312.5 61.597656 312.484375 C 37.101562 311.699219 22.996094 284.304688 36.589844 263.914062 C 36.867188 263.5 37.3125 262.875 38.191406 261.640625 L 55.527344 237.382812 C 58.519531 233.191406 60.023438 231.097656 61.140625 228.835938 C 62.515625 226.050781 63.464844 223.066406 63.964844 220 C 64.367188 217.507812 64.359375 214.929688 64.359375 209.777344 L 64.359375 187.5 C 64.359375 128.578125 64.367188 99.117188 82.671875 80.8125 C 100.976562 62.503906 130.441406 62.5 189.359375 62.5 Z M 195.3125 230.46875 C 188.839844 230.46875 183.59375 235.714844 183.59375 242.1875 C 183.59375 248.660156 188.839844 253.90625 195.3125 253.90625 C 201.78125 253.902344 207.03125 248.65625 207.03125 242.1875 C 207.03125 235.71875 201.78125 230.472656 195.3125 230.46875 Z M 203.125 117.1875 C 193.570312 117.1875 182.753906 119.554688 174.132812 126.738281 C 165.132812 134.238281 160.15625 145.621094 160.15625 160.15625 C 160.15625 166.628906 165.402344 171.875 171.875 171.875 C 178.34375 171.871094 183.59375 166.625 183.59375 160.15625 C 183.59375 151.253906 186.429688 147.011719 189.148438 144.746094 C 192.242188 142.167969 197.058594 140.625 203.125 140.625 C 209.191406 140.625 214.007812 142.167969 217.101562 144.746094 C 219.820312 147.011719 222.65625 151.261719 222.65625 160.15625 C 222.65625 162.320312 221.898438 164.230469 219.726562 166.550781 C 217.28125 169.15625 213.65625 171.609375 208.816406 174.515625 C 204.582031 177.054688 198.5625 180.382812 194.089844 183.960938 C 189.589844 187.558594 183.59375 193.753906 183.59375 203.125 L 183.59375 210.9375 C 183.59375 217.410156 188.839844 222.65625 195.3125 222.65625 C 201.78125 222.652344 207.03125 217.40625 207.03125 210.9375 L 207.03125 203.859375 C 207.28125 203.558594 207.785156 203.03125 208.738281 202.269531 C 211.585938 199.992188 215.34375 197.941406 220.871094 194.625 C 225.792969 191.671875 231.9375 187.773438 236.816406 182.570312 C 241.964844 177.078125 246.09375 169.707031 246.09375 160.15625 C 246.09375 145.625 241.109375 134.238281 232.117188 126.738281 C 223.492188 119.554688 212.675781 117.1875 203.125 117.1875 Z M 203.125 117.1875 "/></g></svg>