<svg width="24" height="24" viewBox="0 0 24 24" fill="none" xmlns="http://www.w3.org/2000/svg">
<rect width="24" height="24" fill="white"/>
<path d="M16 4V6.5" stroke="#09183F" stroke-width="1.5" stroke-linecap="round"/>
<path d="M12 4V6.5" stroke="#09183F" stroke-width="1.5" stroke-linecap="round"/>
<path d="M8 4V6.5" stroke="#09183F" stroke-width="1.5" stroke-linecap="round"/>
<path d="M14.021 5.25419C14.0312 5.25428 14.0057 5.25406 14.007 5.25408C14.2779 5.25787 14.4986 5.48047 14.5 5.75137C14.5 5.7527 14.5 5.75358 14.5 5.75534V6.50032C14.5001 7.32869 15.1716 8.00032 16 8.00032C16.8284 8.00032 17.4999 7.32869 17.5 6.50032C17.5 6.36416 17.5 6.29609 17.5279 6.21616C17.6021 6.00327 17.9122 5.83933 18.1299 5.89789C18.2116 5.91988 18.2449 5.94259 18.3116 5.988C18.3625 6.02266 18.4122 6.05897 18.4609 6.097C18.7192 6.29857 18.9518 6.53111 19.1533 6.78938C19.9999 7.87422 20 9.45797 20 12.6253C20 15.7926 19.9999 17.3764 19.1533 18.4613C18.9518 18.7195 18.7192 18.9521 18.4609 19.1536C17.3761 20.0002 15.7924 20.0003 12.625 20.0003H11.375C8.20764 20.0003 6.6239 20.0002 5.53906 19.1536C5.2808 18.9521 5.04824 18.7195 4.84668 18.4613C4.00008 17.3764 4 15.7926 4 12.6253C4 9.45797 4.0001 7.87422 4.84668 6.78938C5.04824 6.53111 5.28079 6.29857 5.53906 6.097C5.5878 6.05897 5.63755 6.02266 5.68841 5.988C5.75506 5.94259 5.78839 5.91988 5.87012 5.89789C6.08783 5.83933 6.39794 6.00327 6.47214 6.21616C6.5 6.29609 6.5 6.36416 6.5 6.50032C6.50007 7.32869 7.17162 8.00032 8 8.00032C8.82838 8.00032 9.49993 7.32869 9.5 6.50032V5.75534C9.5 5.75358 9.5 5.7527 9.50001 5.75137C9.50145 5.48047 9.72211 5.25787 9.99299 5.25408C9.99432 5.25406 9.96883 5.25428 9.97903 5.25419C9.991 5.25409 9.99699 5.25404 9.99833 5.25403C10.2729 5.25312 10.4985 5.47676 10.5 5.75134C10.5 5.75269 10.5 5.75382 10.5 5.75608V6.50032C10.5001 7.32869 11.1716 8.00032 12 8.00032C12.8284 8.00032 13.4999 7.32869 13.5 6.50032V5.75608C13.5 5.75382 13.5 5.75269 13.5 5.75134C13.5015 5.47676 13.7271 5.25312 14.0017 5.25403C14.003 5.25404 14.009 5.25409 14.021 5.25419ZM16.6338 13.8968C16.4385 13.7015 16.122 13.7015 15.9268 13.8968C15.8291 13.9944 15.6709 13.9944 15.5732 13.8968C15.378 13.7015 15.0615 13.7015 14.8662 13.8968C14.671 14.0921 14.671 14.4086 14.8662 14.6038C14.9638 14.7015 14.9638 14.8597 14.8662 14.9574C14.6709 15.1526 14.6709 15.4691 14.8662 15.6644C15.0615 15.8596 15.378 15.8596 15.5732 15.6644C15.6709 15.5668 15.8291 15.5668 15.9268 15.6644C16.122 15.8596 16.4385 15.8596 16.6338 15.6644C16.8291 15.4691 16.8291 15.1526 16.6338 14.9574C16.5362 14.8597 16.5362 14.7015 16.6338 14.6038C16.829 14.4086 16.829 14.0921 16.6338 13.8968ZM8.25 13.7503C7.69772 13.7503 7.25 14.198 7.25 14.7503C7.25008 15.3025 7.69777 15.7503 8.25 15.7503C8.80223 15.7503 9.24992 15.3025 9.25 14.7503C9.25 14.198 8.80228 13.7503 8.25 13.7503ZM12 13.7503C11.4477 13.7503 11 14.198 11 14.7503C11.0001 15.3025 11.4478 15.7503 12 15.7503C12.5522 15.7503 12.9999 15.3025 13 14.7503C13 14.198 12.5523 13.7503 12 13.7503ZM8.25 10.2503C7.69772 10.2503 7.25 10.698 7.25 11.2503C7.25008 11.8025 7.69777 12.2503 8.25 12.2503C8.80223 12.2503 9.24992 11.8025 9.25 11.2503C9.25 10.698 8.80228 10.2503 8.25 10.2503ZM12 10.2503C11.4477 10.2503 11 10.698 11 11.2503C11.0001 11.8025 11.4478 12.2503 12 12.2503C12.5522 12.2503 12.9999 11.8025 13 11.2503C13 10.698 12.5523 10.2503 12 10.2503ZM15.75 10.2503C15.1977 10.2503 14.75 10.698 14.75 11.2503C14.7501 11.8025 15.1978 12.2503 15.75 12.2503C16.3022 12.2503 16.7499 11.8025 16.75 11.2503C16.75 10.698 16.3023 10.2503 15.75 10.2503Z" fill="#09183F"/>
</svg>
