<svg width="24" height="24" viewBox="0 0 24 24" fill="none" xmlns="http://www.w3.org/2000/svg">
<path d="M16 4V6.5" stroke="#003D2E" stroke-width="1.5" stroke-linecap="round"/>
<path d="M12 4V6.5" stroke="#003D2E" stroke-width="1.5" stroke-linecap="round"/>
<path d="M8 4V6.5" stroke="#003D2E" stroke-width="1.5" stroke-linecap="round"/>
<path fill-rule="evenodd" clip-rule="evenodd" d="M14.021 5.25431C14.0312 5.2544 14.0057 5.25418 14.007 5.2542C14.2779 5.258 14.4986 5.48059 14.5 5.7515C14.5 5.75282 14.5 5.7537 14.5 5.75547V6.50044C14.5001 7.32881 15.1716 8.00044 16 8.00044C16.8284 8.00044 17.4999 7.32881 17.5 6.50044C17.5 6.36429 17.5 6.29621 17.5279 6.21628C17.6021 6.0034 17.9122 5.83945 18.1299 5.89801C18.2116 5.92 18.2449 5.94271 18.3116 5.98812C18.3625 6.02278 18.4122 6.05909 18.4609 6.09712C18.7192 6.29869 18.9518 6.53123 19.1533 6.78951C19.9999 7.87434 20 9.45809 20 12.6254C20 15.7927 19.9999 17.3766 19.1533 18.4614C18.9518 18.7196 18.7192 18.9522 18.4609 19.1538C17.3761 20.0003 15.7924 20.0004 12.625 20.0004H11.375C8.20764 20.0004 6.6239 20.0003 5.53906 19.1538C5.2808 18.9522 5.04824 18.7196 4.84668 18.4614C4.00008 17.3766 4 15.7927 4 12.6254C4 9.45809 4.0001 7.87434 4.84668 6.78951C5.04824 6.53123 5.28079 6.29869 5.53906 6.09712C5.5878 6.05909 5.63755 6.02278 5.68841 5.98812C5.75506 5.94271 5.78839 5.92 5.87012 5.89801C6.08783 5.83945 6.39794 6.0034 6.47214 6.21628C6.5 6.29621 6.5 6.36429 6.5 6.50044C6.50007 7.32881 7.17162 8.00044 8 8.00044C8.82838 8.00044 9.49993 7.32881 9.5 6.50044V5.75547C9.5 5.7537 9.5 5.75282 9.50001 5.7515C9.50145 5.48059 9.72211 5.258 9.99299 5.2542C9.99432 5.25418 9.96883 5.2544 9.97903 5.25431C9.991 5.25421 9.99699 5.25416 9.99833 5.25415C10.2729 5.25324 10.4985 5.47688 10.5 5.75147C10.5 5.75281 10.5 5.75394 10.5 5.75621V6.50044C10.5001 7.32881 11.1716 8.00044 12 8.00044C12.8284 8.00044 13.4999 7.32881 13.5 6.50044V5.75621C13.5 5.75394 13.5 5.75281 13.5 5.75147C13.5015 5.47688 13.7271 5.25324 14.0017 5.25415C14.003 5.25416 14.009 5.25421 14.021 5.25431ZM16.6338 13.8969C16.4385 13.7017 16.122 13.7017 15.9268 13.8969C15.8291 13.9945 15.6709 13.9945 15.5732 13.8969C15.378 13.7017 15.0615 13.7017 14.8662 13.8969C14.671 14.0922 14.671 14.4087 14.8662 14.604C14.9638 14.7016 14.9638 14.8599 14.8662 14.9575C14.6709 15.1527 14.6709 15.4692 14.8662 15.6645C15.0615 15.8597 15.378 15.8598 15.5732 15.6645C15.6709 15.5669 15.8291 15.5669 15.9268 15.6645C16.122 15.8598 16.4385 15.8597 16.6338 15.6645C16.8291 15.4692 16.8291 15.1527 16.6338 14.9575C16.5362 14.8599 16.5362 14.7016 16.6338 14.604C16.829 14.4087 16.829 14.0922 16.6338 13.8969ZM8.25 13.7504C7.69772 13.7504 7.25 14.1982 7.25 14.7504C7.25008 15.3027 7.69777 15.7504 8.25 15.7504C8.80223 15.7504 9.24992 15.3027 9.25 14.7504C9.25 14.1982 8.80228 13.7504 8.25 13.7504ZM12 13.7504C11.4477 13.7504 11 14.1982 11 14.7504C11.0001 15.3027 11.4478 15.7504 12 15.7504C12.5522 15.7504 12.9999 15.3027 13 14.7504C13 14.1982 12.5523 13.7504 12 13.7504ZM8.25 10.2504C7.69772 10.2504 7.25 10.6982 7.25 11.2504C7.25008 11.8027 7.69777 12.2504 8.25 12.2504C8.80223 12.2504 9.24992 11.8027 9.25 11.2504C9.25 10.6982 8.80228 10.2504 8.25 10.2504ZM12 10.2504C11.4477 10.2504 11 10.6982 11 11.2504C11.0001 11.8027 11.4478 12.2504 12 12.2504C12.5522 12.2504 12.9999 11.8027 13 11.2504C13 10.6982 12.5523 10.2504 12 10.2504ZM15.75 10.2504C15.1977 10.2504 14.75 10.6982 14.75 11.2504C14.7501 11.8027 15.1978 12.2504 15.75 12.2504C16.3022 12.2504 16.7499 11.8027 16.75 11.2504C16.75 10.6982 16.3023 10.2504 15.75 10.2504Z" fill="#003D2E"/>
</svg>
