<svg width="24" height="24" viewBox="0 0 24 24" fill="none" xmlns="http://www.w3.org/2000/svg">
<rect width="24" height="24" fill="white"/>
<path d="M12 2C17.5228 2 22 6.47715 22 12C22 17.5228 17.5228 22 12 22C6.47715 22 2 17.5228 2 12C2 6.47715 6.47715 2 12 2ZM12 6.25C11.5858 6.25 11.25 6.58579 11.25 7V10.3428C11.25 11.0989 11.2365 11.6863 11.459 12.2236C11.6816 12.7611 12.1068 13.1674 12.6416 13.7021L13.4697 14.5303L13.5264 14.582C13.8209 14.8223 14.2557 14.8049 14.5303 14.5303C14.8049 14.2557 14.8223 13.8209 14.582 13.5264L14.5303 13.4697L13.7021 12.6416C13.0811 12.0205 12.9266 11.848 12.8447 11.6504C12.7629 11.4527 12.75 11.2215 12.75 10.3428V7C12.75 6.58579 12.4142 6.25 12 6.25Z" fill="#003D2E"/>
</svg>
