<svg width="26" height="24" viewBox="0 0 26 24" fill="none" xmlns="http://www.w3.org/2000/svg">
<path d="M11.5 2.03125C11.5 2.85968 12.1716 3.53125 13 3.53125C13.8284 3.53125 14.5 2.85968 14.5 2.03125V1C14.5 0.528595 14.5 0.292893 14.6464 0.146447C14.7929 0 15.0286 0 15.5 0H17C17.4714 0 17.7071 0 17.8536 0.146447C18 0.292893 18 0.528596 18 1V2.03125C18 2.85968 18.6716 3.53125 19.5 3.53125C20.3284 3.53125 21 2.85968 21 2.03125V1.07755C21 0.580028 21 0.331268 21.1648 0.18237C21.3296 0.033471 21.5665 0.0575641 22.0403 0.10575C23.3181 0.235708 24.1817 0.525633 24.8281 1.17188C25.9996 2.3434 26 4.22909 26 8V15.9688C26 19.74 25.9997 21.6263 24.8281 22.7979C23.6565 23.9691 21.7709 23.9688 18 23.9688H8C4.22906 23.9688 2.34347 23.9691 1.17188 22.7979C0.000332161 21.6263 0 19.74 0 15.9688V8C5.37932e-09 4.22909 0.00035255 2.3434 1.17188 1.17188C1.81826 0.525633 2.68195 0.235708 3.95972 0.10575C4.43349 0.0575641 4.67038 0.033471 4.83519 0.18237C5 0.331268 5 0.580028 5 1.07755V2.03125C5 2.85968 5.67157 3.53125 6.5 3.53125C7.32843 3.53125 8 2.85968 8 2.03125V1C8 0.528595 8 0.292893 8.14645 0.146447C8.29289 0 8.5286 0 9 0H10.5C10.9714 0 11.2071 0 11.3536 0.146447C11.5 0.292893 11.5 0.528596 11.5 1V2.03125ZM6.90625 13.8125C6.00891 13.8125 5.28145 14.5402 5.28125 15.4375C5.28125 16.335 6.00879 17.0625 6.90625 17.0625C7.80371 17.0625 8.53125 16.335 8.53125 15.4375C8.53105 14.5402 7.80359 13.8125 6.90625 13.8125ZM13 13.8125C12.1027 13.8125 11.3752 14.5402 11.375 15.4375C11.375 16.335 12.1025 17.0625 13 17.0625C13.8975 17.0625 14.625 16.335 14.625 15.4375C14.6248 14.5402 13.8973 13.8125 13 13.8125ZM20.3086 14.2715C20.1134 14.0764 19.7968 14.0764 19.6016 14.2715C19.4571 14.4156 19.3849 14.4877 19.3065 14.5247C19.1712 14.5885 19.0145 14.5885 18.8793 14.5245C18.8009 14.4874 18.7289 14.4154 18.585 14.2715C18.3897 14.0763 18.0732 14.0763 17.8779 14.2715C17.6827 14.4667 17.6828 14.7832 17.8779 14.9785C18.0219 15.1225 18.0939 15.1945 18.131 15.2729C18.1949 15.4081 18.195 15.5648 18.1312 15.7C18.0941 15.7785 18.0221 15.8507 17.8779 15.9951C17.6827 16.1903 17.6828 16.5069 17.8779 16.7021C18.0732 16.8974 18.3897 16.8974 18.585 16.7021C18.7286 16.5583 18.8004 16.4863 18.8786 16.4492C19.0142 16.3848 19.1716 16.3847 19.3072 16.449C19.3855 16.486 19.4575 16.5581 19.6016 16.7021C19.7968 16.8974 20.1133 16.8974 20.3086 16.7021C20.5038 16.5069 20.5038 16.1904 20.3086 15.9951C20.1645 15.851 20.0925 15.779 20.0554 15.7008C19.9911 15.5651 19.9912 15.4077 20.0556 15.2721C20.0928 15.1939 20.1647 15.1221 20.3086 14.9785C20.5037 14.7832 20.5038 14.4667 20.3086 14.2715ZM6.90625 8.125C6.00893 8.125 5.28148 8.85273 5.28125 9.75C5.28125 10.6475 6.00879 11.375 6.90625 11.375C7.80371 11.375 8.53125 10.6475 8.53125 9.75C8.53102 8.85273 7.80357 8.125 6.90625 8.125ZM13 8.125C12.1027 8.125 11.3752 8.85271 11.375 9.75C11.375 10.6475 12.1025 11.375 13 11.375C13.8975 11.375 14.625 10.6475 14.625 9.75C14.6248 8.85271 13.8973 8.125 13 8.125ZM19.0938 8.125C18.1964 8.125 17.4689 8.85271 17.4688 9.75C17.4688 10.6475 18.1963 11.375 19.0938 11.375C19.9912 11.375 20.7188 10.6475 20.7188 9.75C20.7186 8.85271 19.9911 8.125 19.0938 8.125Z" fill="#003D2E"/>
</svg>
