<svg xmlns="http://www.w3.org/2000/svg" xmlns:xlink="http://www.w3.org/1999/xlink" width="500" zoomAndPan="magnify" viewBox="0 0 375 374.999991" height="500" preserveAspectRatio="xMidYMid meet" version="1.2"><g id="3624df983b"><rect x="0" width="375" y="0" height="374.999991" style="fill:#ffffff;fill-opacity:1;stroke:none;"/><rect x="0" width="375" y="0" height="374.999991" style="fill:#e7ebec;fill-opacity:1;stroke:none;"/><rect x="0" width="375" y="0" height="374.999991" style="fill:#e7ebec;fill-opacity:1;stroke:none;"/><path style=" stroke:none;fill-rule:nonzero;fill:#0086e0;fill-opacity:1;" d="M 263.1875 136.71875 C 278.960938 136.71875 286.855469 136.722656 291.492188 141.722656 C 296.125 146.722656 295.53125 154.589844 294.34375 170.320312 L 288.304688 250.257812 C 285.769531 283.8125 284.507812 300.59375 276.996094 313.21875 C 270.855469 323.527344 261.875 331.859375 251.132812 337.203125 C 237.980469 343.746094 221.15625 343.75 187.503906 343.75 C 153.851562 343.75 137.027344 343.75 123.875 337.203125 C 113.128906 331.859375 104.148438 323.527344 98.011719 313.21875 C 90.5 300.59375 89.234375 283.8125 86.703125 250.257812 L 80.660156 170.320312 C 79.472656 154.59375 78.882812 146.722656 83.515625 141.722656 C 88.152344 136.722656 96.046875 136.71875 111.820312 136.71875 Z M 156.253906 175.78125 C 149.78125 175.78125 144.535156 181.027344 144.535156 187.5 L 144.535156 281.25 C 144.535156 287.722656 149.78125 292.96875 156.253906 292.96875 C 162.726562 292.96875 167.972656 287.722656 167.972656 281.25 L 167.972656 187.5 C 167.972656 181.027344 162.726562 175.78125 156.253906 175.78125 Z M 218.753906 175.78125 C 212.28125 175.78125 207.035156 181.027344 207.035156 187.5 L 207.035156 281.25 C 207.035156 287.722656 212.28125 292.96875 218.753906 292.96875 C 225.226562 292.96875 230.472656 287.722656 230.472656 281.25 L 230.472656 187.5 C 230.472656 181.027344 225.226562 175.78125 218.753906 175.78125 Z M 218.753906 175.78125 "/><path style=" stroke:none;fill-rule:nonzero;fill:#0086e0;fill-opacity:1;" d="M 187.5 31.25 C 195.066406 31.25 201.375 36.628906 202.816406 43.769531 C 203.15625 45.460938 204.523438 46.875 206.25 46.875 L 232.238281 46.875 C 247.324219 46.875 254.871094 46.867188 261.460938 48.84375 C 271.484375 51.851562 280.210938 58.136719 286.253906 66.679688 C 289.5625 71.363281 291.78125 77.121094 295.210938 87.1875 C 295.753906 88.773438 297.246094 89.84375 298.921875 89.84375 L 300.765625 89.84375 L 301.957031 89.90625 C 307.867188 90.5 312.484375 95.492188 312.484375 101.5625 C 312.484375 107.632812 307.867188 112.625 301.957031 113.21875 L 300.765625 113.28125 L 74.21875 113.28125 C 67.746094 113.28125 62.5 108.035156 62.5 101.5625 C 62.5 95.089844 67.746094 89.84375 74.21875 89.84375 L 75.453125 89.84375 C 77.128906 89.84375 78.621094 88.773438 79.164062 87.1875 C 82.589844 77.121094 84.792969 71.359375 88.105469 66.679688 C 94.148438 58.132812 102.886719 51.851562 112.914062 48.84375 C 119.5 46.867188 127.050781 46.875 142.136719 46.875 L 168.75 46.875 C 170.476562 46.875 171.84375 45.460938 172.183594 43.769531 C 173.625 36.628906 179.933594 31.25 187.5 31.25 Z M 187.5 31.25 "/></g></svg>