<svg xmlns="http://www.w3.org/2000/svg" xmlns:xlink="http://www.w3.org/1999/xlink" width="500" zoomAndPan="magnify" viewBox="0 0 375 374.999991" height="500" preserveAspectRatio="xMidYMid meet" version="1.2"><g id="e9a718eaab"><rect x="0" width="375" y="0" height="374.999991" style="fill:#ffffff;fill-opacity:1;stroke:none;"/><rect x="0" width="375" y="0" height="374.999991" style="fill:#e7ebec;fill-opacity:1;stroke:none;"/><rect x="0" width="375" y="0" height="374.999991" style="fill:#e7ebec;fill-opacity:1;stroke:none;"/><path style=" stroke:none;fill-rule:nonzero;fill:#0086e0;fill-opacity:1;" d="M 281.003906 141.320312 C 287.105469 147.421875 287.105469 157.316406 281.003906 163.417969 L 124.738281 319.695312 C 121.421875 323.015625 119.757812 324.679688 117.71875 325.769531 C 115.683594 326.859375 113.378906 327.320312 108.777344 328.242188 L 77.207031 334.558594 C 56.425781 338.714844 46.027344 340.792969 40.113281 334.878906 C 34.203125 328.964844 36.292969 318.570312 40.449219 297.785156 L 46.75 266.214844 C 47.671875 261.613281 48.132812 259.3125 49.222656 257.273438 C 50.316406 255.234375 51.976562 253.570312 55.296875 250.253906 L 211.5625 93.976562 C 217.664062 87.875 227.554688 87.875 233.65625 93.976562 Z M 276.136719 32.222656 C 280.042969 31.113281 282.410156 31.65625 287.140625 32.769531 C 312.863281 38.839844 336.15625 62.144531 342.222656 87.871094 C 343.335938 92.59375 343.894531 94.957031 342.789062 98.855469 C 341.679688 102.761719 339.3125 105.125 334.59375 109.84375 L 319.671875 124.757812 C 313.570312 130.855469 303.679688 130.851562 297.578125 124.753906 L 250.234375 77.40625 C 244.128906 71.304688 244.128906 61.40625 250.234375 55.308594 L 265.152344 40.398438 C 269.867188 35.683594 272.230469 33.332031 276.136719 32.222656 Z M 276.136719 32.222656 "/></g></svg>