<svg width="22" height="22" viewBox="0 0 22 22" fill="none" xmlns="http://www.w3.org/2000/svg">
<path d="M15.083 0.00117651C12.8112 0.00235931 11.6273 0.0240381 10.6943 0.447466C9.59198 0.947872 8.70841 1.83143 8.20801 2.93379C7.76097 3.91876 7.76074 5.18358 7.76074 7.71309C7.76074 7.83955 7.76064 7.9031 7.73828 7.95235C7.71324 8.00729 7.66923 8.0514 7.61426 8.07637C7.56501 8.09873 7.50148 8.09883 7.375 8.09883H6.39941C5.45684 8.09883 4.98524 8.09894 4.69238 8.3918C4.39973 8.68471 4.39941 9.15628 4.39941 10.0988V10.4348C4.39941 11.3773 4.39973 11.8489 4.69238 12.1418C4.98524 12.4347 5.45684 12.4348 6.39941 12.4348H7.26074C7.49627 12.4348 7.61426 12.435 7.6875 12.508C7.76071 12.5812 7.76074 12.6992 7.76074 12.9348V20.0002C7.76074 20.9429 7.76085 21.4144 8.05371 21.7072C8.34659 22.0001 8.81805 22.0002 9.76074 22.0002H8C4.22896 22.0002 2.34346 21.9997 1.17188 20.8283C0.000323135 19.6568 3.76767e-10 17.7713 0 14.0002V8.0002C2.60887e-09 4.229 0.000307141 2.34364 1.17188 1.17207C2.34346 0.000625809 4.2289 0.000199951 8 0.000199951H14C14.3797 0.000199952 14.7403 -2.59243e-05 15.083 0.00117651ZM16.7617 0.0275437C18.7756 0.0943128 19.9863 0.330229 20.8281 1.17207C21.9995 2.34366 22 4.22919 22 8.0002V14.0002C22 17.7712 21.9996 19.6568 20.8281 20.8283C19.6566 21.9999 17.771 22.0002 14 22.0002H11.1387C12.0814 22.0002 12.5528 22.0001 12.8457 21.7072C13.1386 21.4144 13.1387 20.9429 13.1387 20.0002V12.9348C13.1387 12.6992 13.1387 12.5812 13.2119 12.508C13.2851 12.4349 13.4031 12.4348 13.6387 12.4348H14.9277C15.8703 12.4348 16.3419 12.4347 16.6348 12.1418C16.9274 11.8489 16.9277 11.3773 16.9277 10.4348V10.0988C16.9277 9.15629 16.9274 8.68471 16.6348 8.3918C16.3419 8.09894 15.8703 8.09883 14.9277 8.09883H13.7119C13.4346 8.09883 13.2956 8.09859 13.1895 8.04512C13.0938 7.99691 13.016 7.9191 12.9678 7.82344C12.9145 7.71739 12.9141 7.5788 12.9141 7.30196V7.23653C12.9141 6.18871 12.915 5.66449 13.1064 5.25899C13.3044 4.84 13.6415 4.50276 14.0605 4.30489C14.4661 4.1134 14.9902 4.11348 16.0381 4.11348C16.5617 4.11348 16.8237 4.11338 17.0264 4.01778C17.236 3.91881 17.4049 3.74984 17.5039 3.54024C17.5996 3.33753 17.5996 3.07562 17.5996 2.55196V1.63985C17.5996 1.04232 17.5992 0.743671 17.4756 0.518755C17.3842 0.352403 17.2474 0.215657 17.0811 0.124223C16.9912 0.0748342 16.8895 0.0453501 16.7617 0.0275437Z" fill="#003D2E"/>
</svg>
