<svg width="72" height="72" viewBox="0 0 72 72" fill="none" xmlns="http://www.w3.org/2000/svg">
<circle cx="35.8909" cy="35.8903" r="19.85" transform="rotate(86.7055 35.8909 35.8903)" fill="#003D2E" fill-opacity="0.41" stroke="#DFDD00" stroke-width="0.3"/>
<circle cx="35.8909" cy="35.8902" r="30.85" transform="rotate(86.7055 35.8909 35.8902)" fill="#003D2E" fill-opacity="0.41" stroke="#DFDD00" stroke-width="0.3"/>
<path d="M38.8285 23.5121C36.8415 22.4998 34.4394 22.4998 32.4523 23.5121C31.6945 23.8982 31.3155 24.0913 31.2412 24.6037C31.1669 25.1161 31.547 25.4769 32.3073 26.1986C33.0168 26.872 33.7259 27.5894 33.8563 27.8821C34.9398 30.3141 33.0232 33.3105 30.9047 35.6482C29.0034 37.7462 28.0528 38.7953 28.3926 39.8863C28.7323 40.9772 29.7905 41.2258 31.907 41.7231C34.3574 42.2988 36.9234 42.2988 39.3738 41.7231C41.4903 41.2258 42.5486 40.9772 42.8883 39.8863C43.2281 38.7953 42.2774 37.7462 40.3761 35.6481L40.3761 35.6481C38.2577 33.3104 36.341 30.3141 37.4245 27.8821C37.5549 27.5894 38.264 26.872 38.9735 26.1986C39.7339 25.4769 40.114 25.1161 40.0397 24.6037C39.9653 24.0912 39.5864 23.8982 38.8285 23.5121Z" fill="#DFDD00"/>
<path d="M35.3668 51.1457L34.0464 46.3043C33.8426 45.557 33.7407 45.1833 33.8414 44.8916C33.9115 44.6883 34.0454 44.513 34.2231 44.3918C34.478 44.2179 34.8653 44.2179 35.6399 44.2179C36.4145 44.2179 36.8018 44.2179 37.0567 44.3918C37.2344 44.513 37.3683 44.6883 37.4385 44.8916C37.5392 45.1833 37.4373 45.557 37.2335 46.3043L35.9131 51.1457C35.8795 51.2689 35.7676 51.3543 35.6399 51.3543C35.5122 51.3543 35.4004 51.2689 35.3668 51.1457Z" fill="#DFDD00"/>
</svg>
