<svg xmlns="http://www.w3.org/2000/svg" xmlns:xlink="http://www.w3.org/1999/xlink" width="500" zoomAndPan="magnify" viewBox="0 0 375 374.999991" height="500" preserveAspectRatio="xMidYMid meet" version="1.2"><g id="8bf814d9dc"><rect x="0" width="375" y="0" height="374.999991" style="fill:#ffffff;fill-opacity:1;stroke:none;"/><rect x="0" width="375" y="0" height="374.999991" style="fill:#e7ebec;fill-opacity:1;stroke:none;"/><path style=" stroke:none;fill-rule:nonzero;fill:#003D2E;fill-opacity:1;" d="M 174.503906 32.984375 C 206.65625 32.984375 233.476562 57.09375 239.632812 89.117188 L 201.089844 89.117188 C 191.652344 89.117188 182.546875 90.601562 173.964844 93.355469 C 174.277344 92.265625 174.503906 91.121094 174.503906 89.929688 C 174.5 83.09375 169.003906 77.554688 162.230469 77.554688 L 133.601562 77.554688 L 133.601562 73.433594 C 133.601562 66.597656 128.109375 61.042969 121.332031 61.042969 C 114.558594 61.042969 109.058594 66.597656 109.058594 73.433594 L 109.058594 77.554688 L 80.433594 77.554688 C 73.660156 77.554688 68.164062 83.09375 68.160156 89.929688 C 68.160156 96.765625 73.65625 102.320312 80.433594 102.320312 L 130.832031 102.320312 C 127.746094 113.765625 122.925781 124.652344 116.328125 135 C 113.210938 129.722656 110.503906 124.171875 108.195312 118.347656 C 105.679688 112 98.527344 108.921875 92.234375 111.460938 C 85.949219 114 82.886719 121.195312 85.398438 127.539062 C 89.359375 137.53125 94.320312 146.863281 100.25 155.527344 C 92.566406 163.695312 83.585938 171.496094 73.300781 178.910156 C 67.792969 182.882812 66.511719 190.605469 70.445312 196.167969 C 74.382812 201.726562 82.050781 203.027344 87.5625 199.058594 C 95 193.699219 101.84375 188.078125 108.140625 182.285156 C 108.0625 183.953125 108.039062 185.632812 108.039062 187.324219 L 108.039062 215.398438 L 48.949219 256.972656 C 42.839844 261.269531 34.585938 259.523438 30.515625 253.078125 C 29.0625 250.773438 28.285156 248.074219 28.28125 245.304688 L 28.28125 103.136719 C 28.285156 64.390625 58.039062 32.984375 94.746094 32.984375 Z M 174.503906 32.984375 "/><path style=" stroke:none;fill-rule:evenodd;fill:#003D2E;fill-opacity:1;" d="M 267.550781 299.578125 L 201.089844 299.578125 C 164.382812 299.578125 134.625 268.167969 134.625 229.421875 L 134.625 187.328125 C 134.625 148.582031 164.382812 117.171875 201.089844 117.171875 L 280.84375 117.171875 C 317.550781 117.171875 347.308594 148.582031 347.308594 187.328125 L 347.308594 329.484375 C 347.308594 332.257812 346.53125 334.964844 345.074219 337.269531 C 341.003906 343.714844 332.75 345.457031 326.640625 341.160156 Z M 267.550781 299.578125 "/><path style=" stroke:none;fill-rule:evenodd;fill:#e7ebec;fill-opacity:1;" d="M 221.75 250.46875 L 260.191406 250.46875 L 268.238281 275.953125 C 270.558594 283.304688 278.085938 287.277344 285.050781 284.824219 C 292.015625 282.375 295.78125 274.429688 293.460938 267.078125 L 253.582031 140.796875 C 249.542969 128.003906 232.398438 128.003906 228.359375 140.796875 L 188.480469 267.078125 C 186.160156 274.429688 189.921875 282.375 196.886719 284.824219 C 203.851562 287.277344 211.378906 283.304688 213.703125 275.953125 Z M 221.75 250.46875 "/><path style=" stroke:none;fill-rule:evenodd;fill:#003D2E;fill-opacity:1;" d="M 230.617188 222.40625 L 240.972656 189.605469 L 251.332031 222.40625 Z M 230.617188 222.40625 "/></g></svg>