<svg width="16" height="22" viewBox="0 0 16 22" fill="none" xmlns="http://www.w3.org/2000/svg">
<g clip-path="url(#clip0_98_1163)">
<path fill-rule="evenodd" clip-rule="evenodd" d="M10.4176 0.357654C9.65481 0.126456 8.84345 0 8.00086 0C5.5425 0 3.3425 1.06623 1.87579 2.74125L5.65517 5.7919L10.4175 0.357588L10.4176 0.357654Z" fill="#1A73E8"/>
<path fill-rule="evenodd" clip-rule="evenodd" d="M1.87407 2.74121C0.705564 4.07527 0 5.79688 0 7.67485C0 9.11867 0.299918 10.2881 0.792238 11.336L5.65345 5.79187L1.87407 2.74121Z" fill="#EA4335"/>
<path fill-rule="evenodd" clip-rule="evenodd" d="M8.00085 4.74061C9.69119 4.74061 11.0608 6.05467 11.0608 7.67649C11.0608 8.3984 10.7886 9.06044 10.3379 9.57109C10.3379 9.57109 12.7546 6.81321 15.1002 4.13842C14.1311 2.35028 12.4512 0.974645 10.4193 0.357544L5.65344 5.79186C6.21517 5.14816 7.05776 4.74061 8.00085 4.74061Z" fill="#4285F4"/>
<path fill-rule="evenodd" clip-rule="evenodd" d="M8.00086 10.6108C6.31052 10.6108 4.94094 9.29673 4.94094 7.67492C4.94094 6.95796 5.20963 6.30093 5.65345 5.79028L0.792236 11.3361C1.62265 13.1043 3.00441 14.5231 4.42778 16.3112L10.3361 9.57116C9.77608 10.2066 8.937 10.6108 8.00086 10.6108Z" fill="#FBBC04"/>
<path fill-rule="evenodd" clip-rule="evenodd" d="M10.22 18.151C12.8881 14.1472 16 12.3291 16 7.6749C16 6.39905 15.6741 5.19646 15.1003 4.13855L4.4295 16.3113C4.882 16.8802 5.33793 17.4856 5.78347 18.1527C7.40619 20.558 6.95542 22.0001 8.00259 22.0001C9.04624 22.0001 8.59719 20.5563 10.22 18.151Z" fill="#34A853"/>
</g>
<defs>
<clipPath id="clip0_98_1163">
<rect width="16" height="22" fill="white"/>
</clipPath>
</defs>
</svg>
