<svg xmlns="http://www.w3.org/2000/svg" xmlns:xlink="http://www.w3.org/1999/xlink" width="500" zoomAndPan="magnify" viewBox="0 0 375 374.999991" height="500" preserveAspectRatio="xMidYMid meet" version="1.2"><g id="6d24f92db4"><rect x="0" width="375" y="0" height="374.999991" style="fill:#ffffff;fill-opacity:1;stroke:none;"/><rect x="0" width="375" y="0" height="374.999991" style="fill:#e7ebec;fill-opacity:1;stroke:none;"/><rect x="0" width="375" y="0" height="374.999991" style="fill:#e7ebec;fill-opacity:1;stroke:none;"/><path style=" stroke:none;fill-rule:nonzero;fill:#003D2E;fill-opacity:1;" d="M 296.875 203.125 C 296.875 263.53125 247.90625 312.5 187.5 312.5 C 127.09375 312.5 78.125 263.53125 78.125 203.125 C 78.125 142.71875 127.09375 93.75 187.5 93.75 C 247.90625 93.75 296.875 142.71875 296.875 203.125 Z M 296.875 203.125 "/><path style="fill:none;stroke-width:4;stroke-linecap:round;stroke-linejoin:miter;stroke:#ffffff;stroke-opacity:1;stroke-miterlimit:4;" d="M 12 5 L 12 12 " transform="matrix(15.625,0,0,15.625,0.0000045,0)"/><path style="fill:none;stroke-width:2;stroke-linecap:round;stroke-linejoin:miter;stroke:#003D2E;stroke-opacity:1;stroke-miterlimit:4;" d="M 12 3 L 12 10 " transform="matrix(15.625,0,0,15.625,0.0000045,0)"/></g></svg>