<svg width="24" height="24" viewBox="0 0 24 24" fill="none" xmlns="http://www.w3.org/2000/svg">
<path fill-rule="evenodd" clip-rule="evenodd" d="M14.0004 4C17.7714 4 19.657 4.00035 20.8286 5.17188C21.9999 6.34346 22.0004 8.22899 22.0004 12C22.0004 15.771 21.9999 17.6565 20.8286 18.8281C19.657 19.9997 17.7714 20 14.0004 20H4.11957C4.02323 20 3.97478 20 3.94281 19.999C2.37507 19.9488 1.47223 18.1956 2.34222 16.8906C2.35999 16.864 2.38838 16.824 2.44476 16.7451L3.55414 15.1924C3.74565 14.9243 3.84195 14.7903 3.91351 14.6455C4.00159 14.4673 4.06225 14.2763 4.09418 14.0801C4.1201 13.9206 4.11957 13.7556 4.11957 13.4258V12C4.11957 8.229 4.12009 6.34346 5.29144 5.17188C6.46297 4.00035 8.34862 4 12.1196 4H14.0004Z" fill="#003D2E"/>
</svg>
