<svg xmlns="http://www.w3.org/2000/svg" xmlns:xlink="http://www.w3.org/1999/xlink" width="500" zoomAndPan="magnify" viewBox="0 0 375 374.999991" height="500" preserveAspectRatio="xMidYMid meet" version="1.2"><g id="355753184a"><rect x="0" width="375" y="0" height="374.999991" style="fill:#ffffff;fill-opacity:1;stroke:none;"/><rect x="0" width="375" y="0" height="374.999991" style="fill:#e7ebec;fill-opacity:1;stroke:none;"/><rect x="0" width="375" y="0" height="374.999991" style="fill:#e7ebec;fill-opacity:1;stroke:none;"/><path style=" stroke:none;fill-rule:nonzero;fill:#0086e0;fill-opacity:1;" d="M 109.375 46.875 C 57.292969 46.875 31.25 99.609375 31.25 143.554688 C 31.25 220.171875 133.027344 293.339844 172.296875 318.722656 C 181.621094 324.75 193.378906 324.75 202.703125 318.722656 C 241.972656 293.339844 343.75 220.171875 343.75 143.554688 C 343.75 99.609375 317.707031 46.875 265.625 46.875 C 233.257812 46.875 205.71875 76.199219 193.808594 91.113281 C 189.496094 96.507812 185.503906 96.507812 181.191406 91.113281 C 169.28125 76.199219 141.742188 46.875 109.375 46.875 Z M 109.375 46.875 "/></g></svg>