<svg width="158" height="158" viewBox="0 0 158 158" fill="none" xmlns="http://www.w3.org/2000/svg">
<g clip-path="url(#clip0_925_4928)">
<circle opacity="0.1" cx="79" cy="79" r="79" fill="#003D2E"/>
<g clip-path="url(#clip1_925_4928)">
<circle opacity="0.3" cx="83" cy="85" r="45" fill="#003D2E"/>
<circle cx="79" cy="79" r="45" fill="#003D2E"/>
<path d="M79.5137 86.5786C80.2936 86.5786 80.9569 86.852 81.5029 87.3979C82.0489 87.9439 82.3223 88.6203 82.3223 89.4263C82.3222 90.2321 82.0488 90.9077 81.5029 91.4536C80.9569 91.9996 80.2937 92.2729 79.5137 92.2729C78.7078 92.2729 78.0323 91.9995 77.4863 91.4536C76.9404 90.9077 76.667 90.2321 76.667 89.4263C76.667 88.6203 76.9403 87.9439 77.4863 87.3979C78.0322 86.8522 78.7079 86.5787 79.5137 86.5786ZM81.2305 83.8101H77.5254L77.0176 64.895H81.7373L81.2305 83.8101Z" fill="white"/>
</g>
<circle opacity="0.4" cx="138" cy="71" r="4" fill="#003D2E"/>
<circle opacity="0.9" cx="66.5" cy="139.5" r="2.5" fill="#003D2E"/>
<circle opacity="0.3" cx="24.5" cy="53.5" r="2.5" fill="#003D2E"/>
<circle opacity="0.4" cx="83" cy="25" r="1" fill="#003D2E"/>
</g>
<defs>
<clipPath id="clip0_925_4928">
<rect width="158" height="158" fill="white"/>
</clipPath>
<clipPath id="clip1_925_4928">
<rect width="94" height="96" fill="white" transform="translate(34 34)"/>
</clipPath>
</defs>
</svg>
