<svg width="12" height="12" viewBox="0 0 12 12" fill="none" xmlns="http://www.w3.org/2000/svg">
<path fill-rule="evenodd" clip-rule="evenodd" d="M12 6C12 8.8284 12 10.2427 11.1213 11.1213C10.2427 12 8.8284 12 6 12C3.17157 12 1.75736 12 0.878682 11.1213C-7.15256e-08 10.2427 0 8.8284 0 6C0 3.17157 -7.15256e-08 1.75736 0.878682 0.878682C1.75736 -7.15256e-08 3.17157 0 6 0C8.8284 0 10.2427 -7.15256e-08 11.1213 0.878682C12 1.75736 12 3.17157 12 6ZM9.2727 2.94206C9.4704 3.09268 9.50856 3.37503 9.35796 3.57272L5.24364 8.9727C5.16174 9.08022 5.0358 9.14526 4.90068 9.14976C4.7656 9.15426 4.63562 9.0978 4.54672 8.99592L2.66101 6.83592C2.49756 6.64872 2.51683 6.36444 2.70406 6.201C2.89127 6.03756 3.17555 6.05682 3.33899 6.24408L4.86198 7.98858L8.64204 3.02728C8.7927 2.82959 9.07506 2.79143 9.2727 2.94206Z" fill="#DFDD00"/>
</svg>
