<svg width="15" height="20" viewBox="0 0 15 20" fill="none" xmlns="http://www.w3.org/2000/svg">
<g clip-path="url(#clip0_221_2063)">
<path fill-rule="evenodd" clip-rule="evenodd" d="M9.76649 0.32514C9.05137 0.11496 8.29072 0 7.50079 0C5.19608 0 3.13358 0.969301 1.75854 2.49204L5.30171 5.26537L9.76643 0.32508L9.76649 0.32514Z" fill="black"/>
<path fill-rule="evenodd" clip-rule="evenodd" d="M1.75695 2.49207C0.661466 3.70485 0 5.26995 0 6.97719C0 8.28975 0.281173 9.35283 0.742723 10.3055L5.30011 5.26539L1.75695 2.49207Z" fill="black"/>
<path fill-rule="evenodd" clip-rule="evenodd" d="M7.50074 4.30968C9.08544 4.30968 10.3694 5.50428 10.3694 6.97866C10.3694 7.63494 10.1142 8.2368 9.6917 8.70102C9.6917 8.70102 11.9574 6.19386 14.1564 3.76224C13.2478 2.13666 11.6729 0.886074 9.76806 0.325073L5.30005 5.26536C5.82667 4.68018 6.6166 4.30968 7.50074 4.30968Z" fill="black"/>
<path fill-rule="evenodd" clip-rule="evenodd" d="M7.50076 9.6462C5.91607 9.6462 4.63209 8.4516 4.63209 6.97722C4.63209 6.32544 4.88398 5.72814 5.30006 5.26392L0.742676 10.3055C1.52119 11.913 2.81658 13.2029 4.151 14.8284L9.69004 8.70108C9.16503 9.27876 8.37839 9.6462 7.50076 9.6462Z" fill="black"/>
<path fill-rule="evenodd" clip-rule="evenodd" d="M9.58116 16.5009C12.0825 12.8611 14.9999 11.2083 14.9999 6.97719C14.9999 5.81733 14.6944 4.72407 14.1564 3.76233L4.15259 14.8284C4.5768 15.3456 5.00423 15.896 5.42193 16.5024C6.94323 18.6891 6.52063 20.0001 7.50235 20.0001C8.48078 20.0001 8.0598 18.6875 9.58116 16.5009Z" fill="black"/>
</g>
<defs>
<clipPath id="clip0_221_2063">
<rect width="15" height="20" fill="white"/>
</clipPath>
</defs>
</svg>
