<svg xmlns="http://www.w3.org/2000/svg" xmlns:xlink="http://www.w3.org/1999/xlink" width="500" zoomAndPan="magnify" viewBox="0 0 375 374.999991" height="500" preserveAspectRatio="xMidYMid meet" version="1.2"><g id="6831778d5f"><rect x="0" width="375" y="0" height="374.999991" style="fill:#ffffff;fill-opacity:1;stroke:none;"/><rect x="0" width="375" y="0" height="374.999991" style="fill:#e7ebec;fill-opacity:1;stroke:none;"/><rect x="0" width="375" y="0" height="374.999991" style="fill:#e7ebec;fill-opacity:1;stroke:none;"/><path style=" stroke:none;fill-rule:nonzero;fill:#003D2E;fill-opacity:1;" d="M 165.355469 47.679688 C 172.652344 25.773438 202.347656 25.773438 209.644531 47.679688 L 231.753906 114.039062 C 234.972656 123.703125 243.617188 130.253906 253.421875 130.464844 L 320.742188 131.894531 C 342.964844 132.367188 352.140625 161.832031 334.429688 175.84375 L 280.769531 218.285156 C 272.957031 224.46875 269.65625 235.070312 272.492188 244.859375 L 291.992188 312.105469 C 298.429688 334.304688 274.40625 352.511719 256.160156 339.265625 L 200.890625 299.140625 C 192.84375 293.296875 182.15625 293.296875 174.109375 299.140625 L 118.839844 339.265625 C 100.59375 352.511719 76.570312 334.304688 83.007812 312.105469 L 102.507812 244.859375 C 105.34375 235.070312 102.042969 224.46875 94.230469 218.285156 L 40.574219 175.84375 C 22.859375 161.832031 32.035156 132.367188 54.257812 131.894531 L 121.578125 130.464844 C 131.382812 130.253906 140.027344 123.703125 143.246094 114.039062 Z M 165.355469 47.679688 "/></g></svg>