<svg width="12" height="12" viewBox="0 0 12 12" fill="none" xmlns="http://www.w3.org/2000/svg">
<path d="M4.72243 0.707166C5.01093 -0.23625 6.34649 -0.236251 6.635 0.707164L7.25845 2.74587C7.38701 3.16629 7.77509 3.45343 8.21473 3.45343H10.3553C11.3092 3.45343 11.7215 4.66207 10.9663 5.24502L9.13236 6.66074C8.80293 6.91504 8.66544 7.34679 8.78714 7.74476L9.46272 9.95392C9.74775 10.886 8.66692 11.6335 7.89537 11.0379L6.28977 9.7985C5.92979 9.52061 5.42763 9.52061 5.06765 9.7985L3.46205 11.0379C2.6905 11.6335 1.60967 10.886 1.89471 9.95392L2.57028 7.74476C2.69199 7.34679 2.55449 6.91504 2.22506 6.66074L0.391108 5.24502C-0.364052 4.66207 0.0481806 3.45343 1.00217 3.45343H3.14269C3.58233 3.45343 3.97041 3.16629 4.09898 2.74587L4.72243 0.707166Z" fill="#DFDD00"/>
</svg>
