<svg width="20" height="20" viewBox="0 0 20 20" fill="none" xmlns="http://www.w3.org/2000/svg">
<path d="M0.095679 19.5598L2.31594 15.6744C2.59375 15.1882 2.73265 14.9451 2.91263 14.8174C3.18107 14.6269 3.52609 14.5807 3.83521 14.6938C4.04245 14.7697 4.24042 14.9677 4.63636 15.3636C5.0323 15.7596 5.23028 15.9575 5.30615 16.1648C5.41933 16.4739 5.37313 16.8189 5.1826 17.0874C5.05487 17.2673 4.81178 17.4063 4.32562 17.6841L0.440166 19.9043C0.341309 19.9608 0.216874 19.9441 0.136364 19.8636C0.0558535 19.7831 0.0391893 19.6587 0.095679 19.5598Z" fill="#003D2E"/>
<path d="M19.628 4.09916C18.9974 2.38199 17.618 1.0026 15.9008 0.371985C15.1209 0.0855783 14.731 -0.0576251 14.3012 0.248759C13.8714 0.555143 13.8819 1.08008 13.9027 2.12996C13.9184 2.92484 13.9058 3.6942 13.8125 3.93747C13.0238 5.99364 10.3012 6.72837 7.66849 6.93437C4.83234 7.15628 3.41426 7.26724 2.91562 8.30537C2.41698 9.3435 3.00814 10.2129 4.19045 11.9518C5.22065 13.4669 6.5331 14.7793 8.04821 15.8095C9.78706 16.9918 10.6565 17.583 11.6946 17.0844C12.7327 16.5857 12.8437 15.1676 13.0656 12.3315C13.2716 9.69873 14.0063 6.97618 16.0625 6.18747C16.3058 6.09415 17.0751 6.08156 17.87 6.09732C18.9199 6.11814 19.4449 6.12854 19.7512 5.69877C20.0576 5.269 19.9144 4.87905 19.628 4.09916Z" fill="#003D2E"/>
</svg>
