<svg xmlns="http://www.w3.org/2000/svg" xmlns:xlink="http://www.w3.org/1999/xlink" width="500" zoomAndPan="magnify" viewBox="0 0 375 374.999991" height="500" preserveAspectRatio="xMidYMid meet" version="1.2"><g id="a98c5fd31e"><rect x="0" width="375" y="0" height="374.999991" style="fill:#ffffff;fill-opacity:1;stroke:none;"/><rect x="0" width="375" y="0" height="374.999991" style="fill:#e7ebec;fill-opacity:1;stroke:none;"/><rect x="0" width="375" y="0" height="374.999991" style="fill:#e7ebec;fill-opacity:1;stroke:none;"/><path style=" stroke:none;fill-rule:nonzero;fill:#0086e0;fill-opacity:1;" d="M 101.5625 62.5 L 242.1875 62.5 C 243.464844 62.5 244.742188 62.53125 246.019531 62.59375 C 247.296875 62.65625 248.574219 62.75 249.84375 62.875 C 251.117188 63 252.386719 63.15625 253.652344 63.34375 C 254.914062 63.53125 256.175781 63.75 257.429688 64 C 258.683594 64.25 259.929688 64.53125 261.171875 64.839844 C 262.410156 65.152344 263.640625 65.492188 264.867188 65.863281 C 266.089844 66.234375 267.304688 66.636719 268.507812 67.066406 C 269.710938 67.496094 270.902344 67.957031 272.085938 68.445312 C 273.265625 68.9375 274.433594 69.453125 275.589844 70 C 276.746094 70.546875 277.886719 71.121094 279.015625 71.726562 C 280.144531 72.328125 281.253906 72.957031 282.351562 73.613281 C 283.449219 74.273438 284.527344 74.957031 285.589844 75.667969 C 286.65625 76.375 287.699219 77.113281 288.726562 77.875 C 289.753906 78.636719 290.761719 79.421875 291.75 80.234375 C 292.738281 81.042969 293.707031 81.878906 294.652344 82.738281 C 295.601562 83.597656 296.527344 84.476562 297.429688 85.382812 C 298.335938 86.285156 299.214844 87.210938 300.074219 88.160156 C 300.933594 89.105469 301.769531 90.074219 302.578125 91.0625 C 303.390625 92.050781 304.175781 93.058594 304.9375 94.085938 C 305.699219 95.113281 306.4375 96.15625 307.144531 97.222656 C 307.855469 98.285156 308.539062 99.363281 309.199219 100.460938 C 309.855469 101.558594 310.484375 102.667969 311.085938 103.796875 C 311.691406 104.925781 312.265625 106.066406 312.8125 107.222656 C 313.359375 108.378906 313.875 109.546875 314.367188 110.726562 C 314.855469 111.910156 315.316406 113.101562 315.746094 114.304688 C 316.175781 115.507812 316.578125 116.722656 316.949219 117.945312 C 317.320312 119.171875 317.660156 120.402344 317.972656 121.640625 C 318.28125 122.882812 318.5625 124.128906 318.8125 125.382812 C 319.0625 126.636719 319.277344 127.898438 319.46875 129.160156 C 319.65625 130.425781 319.8125 131.695312 319.9375 132.96875 C 320.0625 134.238281 320.15625 135.515625 320.21875 136.792969 C 320.28125 138.070312 320.3125 139.347656 320.3125 140.625 L 320.3125 281.25 C 320.3125 282.527344 320.28125 283.804688 320.21875 285.082031 C 320.15625 286.359375 320.0625 287.636719 319.9375 288.90625 C 319.8125 290.179688 319.65625 291.449219 319.46875 292.714844 C 319.277344 293.976562 319.0625 295.238281 318.8125 296.492188 C 318.5625 297.746094 318.28125 298.992188 317.972656 300.234375 C 317.660156 301.472656 317.320312 302.703125 316.949219 303.929688 C 316.578125 305.152344 316.175781 306.367188 315.746094 307.570312 C 315.316406 308.773438 314.855469 309.964844 314.367188 311.148438 C 313.875 312.328125 313.359375 313.496094 312.8125 314.652344 C 312.265625 315.808594 311.691406 316.949219 311.085938 318.078125 C 310.484375 319.207031 309.855469 320.316406 309.199219 321.414062 C 308.539062 322.511719 307.855469 323.589844 307.144531 324.652344 C 306.4375 325.71875 305.699219 326.761719 304.9375 327.789062 C 304.175781 328.816406 303.390625 329.824219 302.578125 330.8125 C 301.769531 331.800781 300.933594 332.769531 300.074219 333.714844 C 299.214844 334.664062 298.335938 335.589844 297.429688 336.492188 C 296.527344 337.398438 295.601562 338.277344 294.652344 339.136719 C 293.707031 339.996094 292.738281 340.832031 291.75 341.640625 C 290.761719 342.453125 289.753906 343.238281 288.726562 344 C 287.699219 344.761719 286.65625 345.5 285.589844 346.207031 C 284.527344 346.917969 283.449219 347.601562 282.351562 348.261719 C 281.253906 348.917969 280.144531 349.546875 279.015625 350.148438 C 277.886719 350.753906 276.746094 351.328125 275.589844 351.875 C 274.433594 352.421875 273.265625 352.9375 272.085938 353.429688 C 270.902344 353.917969 269.710938 354.378906 268.507812 354.808594 C 267.304688 355.238281 266.089844 355.640625 264.867188 356.011719 C 263.640625 356.382812 262.410156 356.722656 261.171875 357.035156 C 259.929688 357.34375 258.683594 357.625 257.429688 357.875 C 256.175781 358.125 254.914062 358.339844 253.652344 358.53125 C 252.386719 358.71875 251.117188 358.875 249.84375 359 C 248.574219 359.125 247.296875 359.21875 246.019531 359.28125 C 244.742188 359.34375 243.464844 359.375 242.1875 359.375 L 101.5625 359.375 C 100.285156 359.375 99.007812 359.34375 97.730469 359.28125 C 96.453125 359.21875 95.175781 359.125 93.90625 359 C 92.632812 358.875 91.363281 358.71875 90.097656 358.53125 C 88.835938 358.339844 87.574219 358.125 86.320312 357.875 C 85.066406 357.625 83.820312 357.34375 82.578125 357.035156 C 81.339844 356.722656 80.109375 356.382812 78.882812 356.011719 C 77.660156 355.640625 76.445312 355.238281 75.242188 354.808594 C 74.039062 354.378906 72.847656 353.917969 71.664062 353.429688 C 70.484375 352.9375 69.316406 352.421875 68.160156 351.875 C 67.003906 351.328125 65.863281 350.753906 64.734375 350.148438 C 63.605469 349.546875 62.496094 348.917969 61.398438 348.261719 C 60.300781 347.601562 59.222656 346.917969 58.160156 346.207031 C 57.09375 345.5 56.050781 344.761719 55.023438 344 C 53.996094 343.238281 52.988281 342.453125 52 341.640625 C 51.011719 340.832031 50.042969 339.996094 49.097656 339.136719 C 48.148438 338.277344 47.222656 337.398438 46.320312 336.492188 C 45.414062 335.589844 44.535156 334.664062 43.675781 333.714844 C 42.816406 332.769531 41.980469 331.800781 41.171875 330.8125 C 40.359375 329.824219 39.574219 328.816406 38.8125 327.789062 C 38.050781 326.761719 37.3125 325.71875 36.605469 324.652344 C 35.894531 323.589844 35.210938 322.511719 34.550781 321.414062 C 33.894531 320.316406 33.265625 319.207031 32.664062 318.078125 C 32.058594 316.949219 31.484375 315.808594 30.9375 314.652344 C 30.390625 313.496094 29.875 312.328125 29.382812 311.148438 C 28.894531 309.964844 28.433594 308.773438 28.003906 307.570312 C 27.574219 306.367188 27.171875 305.152344 26.800781 303.929688 C 26.429688 302.703125 26.089844 301.472656 25.777344 300.234375 C 25.46875 298.992188 25.1875 297.746094 24.9375 296.492188 C 24.6875 295.238281 24.46875 293.976562 24.28125 292.714844 C 24.09375 291.449219 23.9375 290.179688 23.8125 288.90625 C 23.6875 287.636719 23.59375 286.359375 23.53125 285.082031 C 23.46875 283.804688 23.4375 282.527344 23.4375 281.25 L 23.4375 140.625 C 23.4375 139.347656 23.46875 138.070312 23.53125 136.792969 C 23.59375 135.515625 23.6875 134.238281 23.8125 132.96875 C 23.9375 131.695312 24.09375 130.425781 24.28125 129.160156 C 24.46875 127.898438 24.6875 126.636719 24.9375 125.382812 C 25.1875 124.128906 25.46875 122.882812 25.777344 121.640625 C 26.089844 120.402344 26.429688 119.171875 26.800781 117.945312 C 27.171875 116.722656 27.574219 115.507812 28.003906 114.304688 C 28.433594 113.101562 28.894531 111.910156 29.382812 110.726562 C 29.875 109.546875 30.390625 108.378906 30.9375 107.222656 C 31.484375 106.066406 32.058594 104.925781 32.664062 103.796875 C 33.265625 102.667969 33.894531 101.558594 34.550781 100.460938 C 35.210938 99.363281 35.894531 98.285156 36.605469 97.222656 C 37.3125 96.15625 38.050781 95.113281 38.8125 94.085938 C 39.574219 93.058594 40.359375 92.050781 41.171875 91.0625 C 41.980469 90.074219 42.816406 89.105469 43.675781 88.160156 C 44.535156 87.210938 45.414062 86.285156 46.320312 85.382812 C 47.222656 84.476562 48.148438 83.597656 49.097656 82.738281 C 50.042969 81.878906 51.011719 81.042969 52 80.234375 C 52.988281 79.421875 53.996094 78.636719 55.023438 77.875 C 56.050781 77.113281 57.09375 76.375 58.160156 75.667969 C 59.222656 74.957031 60.300781 74.273438 61.398438 73.613281 C 62.496094 72.957031 63.605469 72.328125 64.734375 71.726562 C 65.863281 71.121094 67.003906 70.546875 68.160156 70 C 69.316406 69.453125 70.484375 68.9375 71.664062 68.445312 C 72.847656 67.957031 74.039062 67.496094 75.242188 67.066406 C 76.445312 66.636719 77.660156 66.234375 78.882812 65.863281 C 80.109375 65.492188 81.339844 65.152344 82.578125 64.839844 C 83.820312 64.53125 85.066406 64.25 86.320312 64 C 87.574219 63.75 88.835938 63.53125 90.097656 63.34375 C 91.363281 63.15625 92.632812 63 93.90625 62.875 C 95.175781 62.75 96.453125 62.65625 97.730469 62.59375 C 99.007812 62.53125 100.285156 62.5 101.5625 62.5 Z M 101.5625 62.5 "/><path style="fill:none;stroke-width:4;stroke-linecap:round;stroke-linejoin:miter;stroke:#ffffff;stroke-opacity:1;stroke-miterlimit:4;" d="M 11 13 L 21.724999 2.275 " transform="matrix(15.625,0,0,15.625,0.0000045,0)"/><path style="fill:none;stroke-width:4;stroke-linecap:round;stroke-linejoin:miter;stroke:#ffffff;stroke-opacity:1;stroke-miterlimit:4;" d="M 17.599499 2 L 21.499499 2 C 21.775749 2 21.999499 2.22375 21.999499 2.5 L 21.999499 6.4 " transform="matrix(15.625,0,0,15.625,0.0000045,0)"/><path style="fill:none;stroke-width:1.5;stroke-linecap:round;stroke-linejoin:miter;stroke:#0086e0;stroke-opacity:1;stroke-miterlimit:4;" d="M 11 13 L 21.724999 2.275 " transform="matrix(15.625,0,0,15.625,0.0000045,0)"/><path style="fill:none;stroke-width:1.5;stroke-linecap:round;stroke-linejoin:miter;stroke:#0086e0;stroke-opacity:1;stroke-miterlimit:4;" d="M 17.599499 2 L 21.499499 2 C 21.775749 2 21.999499 2.22375 21.999499 2.5 L 21.999499 6.4 " transform="matrix(15.625,0,0,15.625,0.0000045,0)"/></g></svg>