<svg xmlns="http://www.w3.org/2000/svg" xmlns:xlink="http://www.w3.org/1999/xlink" width="500" zoomAndPan="magnify" viewBox="0 0 375 374.999991" height="500" preserveAspectRatio="xMidYMid meet" version="1.2"><g id="04559e2e5a"><rect x="0" width="375" y="0" height="374.999991" style="fill:#ffffff;fill-opacity:1;stroke:none;"/><rect x="0" width="375" y="0" height="374.999991" style="fill:#e7ebec;fill-opacity:1;stroke:none;"/><rect x="0" width="375" y="0" height="374.999991" style="fill:#e7ebec;fill-opacity:1;stroke:none;"/><path style=" stroke:none;fill-rule:nonzero;fill:#0086e0;fill-opacity:1;" d="M 161.070312 31.25 C 166.621094 31.25 171.472656 31.253906 175.78125 31.3125 L 175.78125 78.125 C 175.78125 92.523438 175.757812 104.511719 177.03125 113.984375 C 178.351562 123.789062 181.253906 132.640625 188.371094 139.753906 C 195.484375 146.871094 204.335938 149.773438 214.140625 151.09375 C 223.613281 152.367188 235.601562 152.34375 250 152.34375 L 312.242188 152.34375 C 312.480469 159.421875 312.5 167.691406 312.5 177.65625 L 312.5 250 C 312.5 294.195312 312.496094 316.289062 298.765625 330.015625 C 285.039062 343.746094 262.945312 343.75 218.75 343.75 L 156.25 343.75 C 112.054688 343.75 89.960938 343.746094 76.234375 330.015625 C 62.503906 316.289062 62.5 294.195312 62.5 250 L 62.5 125 C 62.5 80.804688 62.503906 58.710938 76.234375 44.984375 C 89.960938 31.253906 112.054688 31.25 156.25 31.25 Z M 199.21875 33.433594 C 200.882812 33.832031 202.5 34.273438 204.085938 34.835938 C 214.210938 38.421875 222.726562 45.328125 239.761719 59.128906 L 266.1875 80.535156 C 288.949219 98.976562 300.328125 108.195312 306.414062 120.957031 C 307.625 123.496094 308.578125 126.117188 309.355469 128.90625 L 250 128.90625 C 234.9375 128.90625 224.816406 128.882812 217.269531 127.867188 C 210.0625 126.898438 206.976562 125.21875 204.941406 123.183594 C 202.90625 121.148438 201.226562 118.0625 200.257812 110.855469 C 199.242188 103.308594 199.21875 93.1875 199.21875 78.125 Z M 199.21875 33.433594 "/></g></svg>