<svg xmlns="http://www.w3.org/2000/svg" xmlns:xlink="http://www.w3.org/1999/xlink" width="500" zoomAndPan="magnify" viewBox="0 0 375 374.999991" height="500" preserveAspectRatio="xMidYMid meet" version="1.2"><g id="3b9210ad52"><rect x="0" width="375" y="0" height="374.999991" style="fill:#ffffff;fill-opacity:1;stroke:none;"/><rect x="0" width="375" y="0" height="374.999991" style="fill:#e7ebec;fill-opacity:1;stroke:none;"/><rect x="0" width="375" y="0" height="374.999991" style="fill:#e7ebec;fill-opacity:1;stroke:none;"/><path style=" stroke:none;fill-rule:nonzero;fill:#0086e0;fill-opacity:1;" d="M 109.375 250 L 109.375 167.390625 C 109.375 164.285156 109.375 162.734375 108.9375 161.484375 C 108.152344 159.238281 106.386719 157.472656 104.144531 156.6875 C 102.890625 156.25 101.332031 156.25 98.214844 156.25 C 79.511719 156.25 70.160156 156.25 62.644531 158.882812 C 49.179688 163.59375 38.59375 174.179688 33.878906 187.644531 C 31.25 195.160156 31.25 204.511719 31.25 223.214844 L 31.25 250 C 31.25 287.5 31.398438 343.75 70.386719 343.75 C 109.375 343.75 109.375 268.75 109.375 250 Z M 109.375 250 "/><path style=" stroke:none;fill-rule:nonzero;fill:#0086e0;fill-opacity:1;" d="M 240.007812 31.25 C 285.472656 31.25 308.214844 31.25 323.519531 43.761719 C 326.320312 46.054688 328.894531 48.617188 331.195312 51.40625 C 343.75 66.660156 343.75 89.324219 343.75 134.644531 L 343.75 196.6875 C 343.75 266.007812 343.753906 300.683594 322.144531 322.21875 C 300.539062 343.753906 265.761719 343.75 196.214844 343.75 L 130.601562 343.75 C 122.117188 343.75 117.863281 343.742188 116.730469 341.8125 C 115.613281 339.878906 117.957031 335.691406 122.636719 327.332031 C 135.386719 304.570312 136.277344 273.644531 136.277344 251.832031 L 136.277344 134.644531 C 136.277344 89.324219 136.277344 66.660156 148.835938 51.40625 C 151.132812 48.617188 153.695312 46.050781 156.496094 43.761719 C 171.796875 31.246094 194.539062 31.25 240.007812 31.25 Z M 183.59375 179.6875 C 179.28125 179.6875 175.78125 183.1875 175.78125 187.5 C 175.78125 191.8125 179.28125 195.3125 183.59375 195.3125 L 296.875 195.3125 C 301.191406 195.3125 304.6875 191.8125 304.6875 187.5 C 304.6875 183.1875 301.191406 179.6875 296.875 179.6875 Z M 187.5 140.625 C 183.1875 140.625 179.6875 144.125 179.6875 148.4375 C 179.6875 152.75 183.1875 156.25 187.5 156.25 L 300.78125 156.25 C 305.097656 156.25 308.59375 152.753906 308.59375 148.4375 C 308.59375 144.121094 305.097656 140.625 300.78125 140.625 Z M 191.40625 78.125 C 184.042969 78.125 180.359375 78.125 178.070312 80.414062 C 175.785156 82.703125 175.78125 86.386719 175.78125 93.75 C 175.78125 101.113281 175.785156 104.796875 178.070312 107.085938 C 180.359375 109.375 184.042969 109.375 191.40625 109.375 L 289.0625 109.375 C 296.429688 109.375 300.113281 109.375 302.398438 107.085938 C 304.6875 104.796875 304.6875 101.117188 304.6875 93.75 C 304.6875 86.382812 304.6875 82.703125 302.398438 80.414062 C 300.113281 78.125 296.429688 78.125 289.0625 78.125 Z M 191.40625 78.125 "/></g></svg>