<svg width="24" height="24" viewBox="0 0 24 24" fill="none" xmlns="http://www.w3.org/2000/svg">
<path d="M12 2C17.1427 2 19.9998 5.8886 20 9.77734C20 12.5992 17.9355 16.0614 15.9043 18.7852C14.3046 20.9303 13.5051 22.0029 12 22.0029C10.4949 22.0029 9.69544 20.9303 8.0957 18.7852C6.06447 16.0614 4 12.5992 4 9.77734C4.00021 5.8886 6.85733 2 12 2ZM12 7C10.3431 7 9 8.34315 9 10C9 11.6569 10.3431 13 12 13C13.6569 13 15 11.6569 15 10C15 8.34315 13.6569 7 12 7Z" fill="#003D2E"/>
<circle cx="12" cy="10" r="4" fill="white"/>
</svg>
