<svg width="72" height="72" viewBox="0 0 72 72" fill="none" xmlns="http://www.w3.org/2000/svg">
<circle cx="35.8912" cy="35.8905" r="19.85" transform="rotate(86.7055 35.8912 35.8905)" fill="#003D2E" fill-opacity="0.41" stroke="#DFDD00" stroke-width="0.3"/>
<circle cx="35.8911" cy="35.8905" r="30.85" transform="rotate(86.7055 35.8911 35.8905)" fill="#003D2E" fill-opacity="0.41" stroke="#DFDD00" stroke-width="0.3"/>
<path d="M38.9508 42.8137C38.7521 43.7179 38.6269 44.9102 38.2374 46.0111C37.3352 48.5646 34.6048 49.1647 32.8303 47.0921C31.819 45.8789 31.0451 44.4861 30.549 42.9866C28.4665 36.7886 29.3468 30.8469 32.5243 25.2192C33.0937 24.2501 33.8142 23.378 34.6585 22.6359C35.2616 22.1262 35.9844 21.7781 36.7589 21.6244C38.6905 21.227 39.7656 22.0477 39.9007 24.019C39.9552 25.1764 39.912 26.3364 39.7715 27.4866C39.7457 27.7409 39.3125 28.0827 39.0064 28.1622C33.3907 29.7003 31.483 36.3732 35.5587 40.5046C36.437 41.3968 37.6552 41.9493 38.9508 42.8137Z" fill="#DFDD00"/>
<path d="M47.0015 35.3241C47.0046 36.5611 46.6413 37.7713 45.9575 38.8022C45.2737 39.833 44.2999 40.6383 43.1591 41.1165C42.0182 41.5946 40.7612 41.7242 39.5468 41.489C38.3323 41.2537 37.2147 40.6641 36.3349 39.7946C35.4551 38.925 34.8525 37.8144 34.603 36.6027C34.3536 35.3911 34.4685 34.1328 34.9333 32.9864C35.3981 31.84 36.1919 30.8569 37.2146 30.161C38.2374 29.4652 39.4433 29.0878 40.6803 29.0764C41.5077 29.064 42.3292 29.2166 43.0969 29.5252C43.8646 29.8339 44.5631 30.2924 45.1516 30.8741C45.7401 31.4557 46.2068 32.1488 46.5245 32.9129C46.8421 33.6769 47.0043 34.4966 47.0015 35.3241Z" fill="#DFDD00"/>
<path d="M28.4103 38.4419C28.7303 40.0654 29.0164 41.5101 29.3185 43.0482C27.9274 43.2906 26.5682 43.5748 25.199 43.7477C24.3922 43.851 23.7802 43.4039 23.5298 42.6269C23.2973 41.9075 23.4305 41.1882 24.126 40.7868C25.4772 39.9899 26.8842 39.2686 28.4103 38.4419Z" fill="#DFDD00"/>
<path d="M34.2347 49.5564C33.4398 49.924 32.5078 50.4824 31.4963 50.7944C30.3557 51.1481 29.3104 50.4089 29.0442 49.2603C28.7898 48.1753 29.4813 46.9909 30.5783 46.7624C30.8028 46.7127 31.1347 46.9452 31.3533 47.1261C32.3031 47.8971 33.2291 48.6999 34.2347 49.5564Z" fill="#DFDD00"/>
<path d="M40.7368 22.3577C41.5555 22.6557 42.6127 22.924 43.5487 23.4168C44.6059 23.9732 44.8205 25.2331 44.1985 26.2366C43.6023 27.1825 42.2828 27.5323 41.3429 26.9222C41.1442 26.797 41.0786 26.3996 41.0508 26.1154C40.9296 24.9032 40.8441 23.6732 40.7368 22.3577Z" fill="#DFDD00"/>
</svg>
