<svg xmlns="http://www.w3.org/2000/svg" xmlns:xlink="http://www.w3.org/1999/xlink" width="500" zoomAndPan="magnify" viewBox="0 0 375 374.999991" height="500" preserveAspectRatio="xMidYMid meet" version="1.2"><g id="0a3f0495ff"><rect x="0" width="375" y="0" height="374.999991" style="fill:#ffffff;fill-opacity:1;stroke:none;"/><rect x="0" width="375" y="0" height="374.999991" style="fill:#e7ebec;fill-opacity:1;stroke:none;"/><rect x="0" width="375" y="0" height="374.999991" style="fill:#e7ebec;fill-opacity:1;stroke:none;"/><path style=" stroke:none;fill-rule:nonzero;fill:#003D2E;fill-opacity:1;" d="M 187.5 31.25 C 273.792969 31.25 343.75 101.207031 343.75 187.5 C 343.75 273.792969 273.792969 343.75 187.5 343.75 C 101.207031 343.75 31.25 273.792969 31.25 187.5 C 31.25 101.207031 101.207031 31.25 187.5 31.25 Z M 204.835938 157.394531 C 183.445312 143.136719 172.757812 136.011719 164.503906 140.425781 C 156.253906 144.84375 156.25 157.691406 156.25 183.394531 L 156.25 191.605469 C 156.25 217.308594 156.253906 230.15625 164.503906 234.574219 C 172.757812 238.988281 183.445312 231.863281 204.835938 217.605469 L 211 213.5 C 228.636719 201.742188 237.457031 195.863281 237.457031 187.5 C 237.457031 179.136719 228.636719 173.257812 211 161.5 Z M 204.835938 157.394531 "/></g></svg>