<svg width="92" height="25" viewBox="0 0 92 25" fill="none" xmlns="http://www.w3.org/2000/svg">
<path d="M49.4529 3.83887C49.9085 3.81661 50.3395 3.62562 50.662 3.30307C50.9846 2.98053 51.1756 2.54951 51.1978 2.09391C51.2037 1.8614 51.161 1.63021 51.0725 1.41514C50.9839 1.20006 50.8514 1.00584 50.6835 0.844893C50.5234 0.681009 50.3319 0.55102 50.1205 0.462665C49.909 0.374309 49.682 0.329393 49.4529 0.33059C48.9927 0.341766 48.5535 0.525313 48.2222 0.844893C48.0519 1.00493 47.9166 1.19856 47.8249 1.41355C47.7332 1.62853 47.6871 1.8602 47.6895 2.09391C47.7131 2.56497 47.917 3.0089 48.259 3.33375C48.6009 3.6586 49.0547 3.83946 49.5263 3.83887H49.4529Z" fill="#003D2E"/>
<path d="M64.6789 4.20637C64.4301 4.21883 64.1813 4.18054 63.9477 4.09382C63.7142 4.00711 63.5007 3.87379 63.3203 3.70197C63.1399 3.53015 62.9963 3.32342 62.8983 3.09437C62.8003 2.86531 62.7499 2.61871 62.7502 2.36958V0.881771H64.1646C64.1646 1.35934 64.1646 1.81854 64.1646 2.25937C64.1646 2.7002 64.3666 2.92061 64.6973 2.92061C65.0279 2.92061 65.3401 2.51652 65.3401 1.67159V0.845035H66.8463C66.8463 1.34097 66.8463 1.80017 66.8463 2.22263C66.8463 2.6451 67.0483 2.82877 67.3973 2.82877C67.7463 2.82877 67.8933 2.53489 67.8933 1.96548C67.879 1.52756 67.8299 1.09147 67.7463 0.661355L69.2341 0.551147V1.94711C69.2341 3.41655 68.5913 4.16964 67.3973 4.16964C66.681 4.16964 66.2402 3.96759 66.0565 3.58186C65.905 3.80106 65.6969 3.97497 65.4542 4.08498C65.2115 4.19498 64.9435 4.23694 64.6789 4.20637Z" fill="#003D2E"/>
<path d="M7.07805 24.5395C7.24641 24.3721 7.37759 24.1711 7.46304 23.9495C7.54849 23.728 7.58629 23.4909 7.57399 23.2538C7.58169 22.9079 7.48528 22.5676 7.29728 22.2772C7.10927 21.9867 6.83834 21.7594 6.51961 21.6248C6.20088 21.4902 5.84905 21.4544 5.50975 21.5222C5.17046 21.5899 4.85934 21.7581 4.61675 22.0048C4.44641 22.1648 4.31112 22.3584 4.21944 22.5734C4.12775 22.7884 4.08166 23.0201 4.08407 23.2538C4.08196 23.4847 4.12827 23.7136 4.22002 23.9255C4.31177 24.1375 4.44691 24.3279 4.61675 24.4844C4.77742 24.6477 4.96898 24.7774 5.18026 24.8659C5.39154 24.9544 5.61832 25 5.8474 25C6.07647 25 6.30326 24.9544 6.51454 24.8659C6.72582 24.7774 6.91738 24.6477 7.07805 24.4844V24.5395Z" fill="#003D2E"/>
<path d="M11.0265 24.5396C11.2106 24.3796 11.3583 24.1821 11.4597 23.9603C11.5611 23.7386 11.6138 23.4977 11.6143 23.2538C11.6143 22.7667 11.4208 22.2995 11.0763 21.955C10.7319 21.6105 10.2647 21.417 9.77751 21.417C9.54838 21.4158 9.32134 21.4607 9.10992 21.5491C8.89849 21.6374 8.70701 21.7674 8.54686 21.9313C8.37376 22.0892 8.23661 22.2824 8.14471 22.4979C8.0528 22.7134 8.00829 22.9461 8.01419 23.1803C8.00852 23.4118 8.05322 23.6418 8.14519 23.8542C8.23716 24.0667 8.37422 24.2567 8.54686 24.411C8.70431 24.5784 8.8953 24.7107 9.10735 24.7994C9.3194 24.888 9.54776 24.9309 9.77751 24.9253C10.0009 24.9482 10.2267 24.9259 10.4413 24.8596C10.6559 24.7933 10.8549 24.6845 11.0265 24.5396Z" fill="#003D2E"/>
<path d="M77.72 14.5842C77.915 13.6473 78.0196 12.6939 78.0323 11.7371C78.0079 10.1088 77.4748 8.52889 76.5078 7.21861C75.9682 6.42631 75.242 5.77898 74.3931 5.33371C73.5442 4.88845 72.5988 4.65895 71.6403 4.66546C70.5542 4.66293 69.4877 4.95493 68.5544 5.51039C67.367 6.22226 66.346 7.18058 65.5605 8.32068V6.06143H62.4563V14.5842H57.8643V0H54.8336V14.5842H51.16C51.4472 13.6757 51.5837 12.7264 51.5641 11.7739V6.06143H48.6252V11.9024C48.6252 13.7392 47.9272 14.5842 46.5496 14.5842H19.714V11.4065C19.714 7.73291 18.0609 5.89611 14.7363 5.89611C13.21 5.87868 11.6889 6.07655 10.2178 6.48389V17.1924H7.05852C4.3768 17.1924 3.03594 15.9067 3.03594 13.3351C3.06831 11.6645 3.72336 10.0662 4.87274 8.85336L2.4849 7.1635C1.66182 7.98379 1.0168 8.96503 0.590137 10.0459C0.163478 11.1268 -0.035641 12.284 0.00522747 13.4453C-0.00107388 14.3918 0.197596 15.3284 0.587587 16.1909C0.977578 17.0533 1.54965 17.8211 2.26449 18.4414C3.60478 19.5414 5.30894 20.0985 7.04015 20.0027H12.5505C12.973 20.0027 13.1751 19.7639 13.1751 19.2864L13.2302 8.55947C13.699 8.38414 14.2009 8.31513 14.6996 8.35742C16.0221 8.35742 16.6833 9.40439 16.6833 11.5167V17.3577H77.1506L77.72 14.5842ZM74.5608 14.5842H65.3768V13.0964C65.4217 12.7932 65.5213 12.5007 65.6707 12.2331C66.252 11.0633 67.0285 10.0011 67.9667 9.09214C68.897 8.09188 70.1837 7.49803 71.5484 7.43902C72.1468 7.43999 72.7321 7.61387 73.234 7.93975C73.7358 8.26562 74.1328 8.7296 74.3771 9.27582C74.8152 10.1008 75.0364 11.0236 75.02 11.9575C75.0027 12.8515 74.8478 13.7374 74.5608 14.5842Z" fill="#003D2E"/>
<path d="M86.4813 4.66533C85.0987 4.64697 83.751 5.1005 82.6608 5.95109C81.8756 6.56099 81.2464 7.34856 80.8249 8.24905C80.4034 9.14953 80.2016 10.1372 80.2362 11.1309C80.2202 12.1364 80.4554 13.13 80.9205 14.0217C81.3856 14.9133 82.0658 15.6748 82.8996 16.2371C84.3581 17.094 86.0436 17.485 87.7304 17.3576H88.3549C88.3849 17.7222 88.3334 18.0889 88.2039 18.431C88.0744 18.7731 87.8703 19.0821 87.6064 19.3354C87.3425 19.5888 87.0255 19.7801 86.6783 19.8955C86.3312 20.0109 85.9627 20.0475 85.5997 20.0026H83.8914V22.7945H85.7282C89.2733 22.7945 91.0917 20.9577 91.2386 17.2841V6.1164C89.8405 5.15358 88.1788 4.64673 86.4813 4.66533ZM88.1712 14.584H87.4181C84.6813 14.584 83.322 13.3534 83.322 10.9104C83.3305 9.83418 83.7512 8.80212 84.4976 8.02667C84.734 7.77571 85.0184 7.57484 85.3339 7.436C85.6494 7.29717 85.9897 7.22319 86.3344 7.21848C86.9886 7.20981 87.6298 7.40215 88.1712 7.76952V14.584Z" fill="#003D2E"/>
</svg>
