<svg width="23" height="22" viewBox="0 0 23 22" fill="none" xmlns="http://www.w3.org/2000/svg">
<path d="M11.3994 0.000244141C17.4745 0.000244141 22.3994 4.92517 22.3994 11.0002C22.3994 17.0753 17.4745 22.0002 11.3994 22.0002C9.76457 22.0002 8.21303 21.643 6.81836 21.0032C6.6007 20.9033 6.49136 20.8536 6.3877 20.844C6.28413 20.8345 6.17651 20.8616 5.96191 20.9153L3.43066 21.5481C2.61457 21.7521 2.20642 21.8538 1.96387 21.6301C1.72135 21.4062 1.79039 20.9913 1.92871 20.1614L2.31836 17.8225C2.35816 17.5837 2.37815 17.4638 2.35547 17.3528C2.33272 17.2419 2.26181 17.1318 2.12109 16.9114C1.03121 15.2042 0.399436 13.1759 0.399414 11.0002C0.399414 4.92527 5.32448 0.000406974 11.3994 0.000244141ZM7.4502 6.59985C6.89798 6.59985 6.44358 7.04959 6.50879 7.5979C7.00916 11.797 10.6027 15.3905 14.8018 15.8909C15.35 15.9562 15.7996 15.5026 15.7998 14.9504V13.3811C15.7998 12.6285 15.2876 11.972 14.5576 11.7893L14.4766 11.7698C13.9641 11.6417 13.4315 11.8862 13.1953 12.3586C13.1117 12.5259 12.9172 12.6075 12.7432 12.5393C11.3626 11.9981 10.4015 11.0371 9.86035 9.65649C9.79219 9.48249 9.87388 9.28795 10.041 9.20435C10.5134 8.96813 10.7589 8.43551 10.6309 7.9231L10.6104 7.84302C10.4278 7.11277 9.77128 6.59985 9.01855 6.59985H7.4502Z" fill="#09183F"/>
</svg>
