<svg width="23" height="23" viewBox="0 0 23 23" fill="none" xmlns="http://www.w3.org/2000/svg">
<path d="M0.745902 22.4761C1.02686 21.6476 1.28253 20.8708 1.54242 20.0948C1.72855 19.5401 1.90907 18.984 2.10433 18.4335C2.13288 18.3666 2.14286 18.2933 2.13322 18.2212C2.12358 18.1491 2.09468 18.0809 2.04955 18.0238C0.632114 15.9472 -0.110317 13.6492 0.0133047 11.1355C0.228237 6.78058 2.25886 3.46287 6.10377 1.38764C10.7796 -1.13583 16.3875 -0.14059 19.9929 3.74723C21.85 5.75032 22.846 8.14492 22.9844 10.8701C23.2324 15.7581 20.505 20.1705 15.9759 22.0559C12.3621 23.5589 8.82484 23.2521 5.45476 21.2441C5.36727 21.184 5.26633 21.1462 5.16077 21.1339C5.05521 21.1217 4.94826 21.1355 4.84929 21.1741C3.55337 21.5985 2.25043 22.0062 0.951001 22.4194C0.903239 22.4341 0.854071 22.446 0.745902 22.4761ZM14.9806 17.9524C15.5088 17.9468 15.971 17.8627 16.3391 17.5209C16.7689 17.1217 17.1939 16.7176 17.6034 16.2995C18.0641 15.8309 18.1042 14.9687 17.6589 14.5002C17.052 13.8593 16.4276 13.2325 15.7778 12.6344C15.1555 12.0615 14.1968 12.3122 13.8737 13.0973C13.559 13.8628 12.8903 14.1479 12.1226 13.832C11.2017 13.4503 10.4776 12.8123 9.85666 12.0502C9.51811 11.6342 9.23855 11.1825 9.08965 10.6607C8.89298 9.97011 9.18307 9.40841 9.86228 9.16327C10.7262 8.8516 10.9573 7.85636 10.3104 7.198C9.73538 6.61108 9.15497 6.03023 8.56917 5.45546C8.00726 4.90636 7.25008 4.90496 6.69237 5.44775C6.31027 5.82035 5.9366 6.20066 5.55801 6.57677C5.2954 6.83817 5.13012 7.18112 5.08951 7.54889C4.98064 8.38935 5.19979 9.17028 5.54888 9.90778C7.0527 13.0833 9.40502 15.4695 12.4625 17.1763C13.252 17.619 14.1012 17.9145 14.9806 17.9524Z" fill="#DFDD00"/>
</svg>
